<svg width="512" height="512" viewBox="0 0 512 512" fill="none" xmlns="http://www.w3.org/2000/svg">
<g clip-path="url(#clip0_24_24)">
<path d="M380.144 238.187C409.386 208.944 409.386 161.366 380.144 132.124C350.835 102.816 303.394 102.808 274.082 132.124C244.839 161.362 244.839 208.944 274.082 238.187C303.39 267.495 350.832 267.499 380.144 238.187ZM295.292 153.335C312.878 135.753 341.343 135.749 358.933 153.335C376.476 170.882 376.476 199.429 358.933 216.976C341.347 234.562 312.882 234.566 295.292 216.976C277.75 199.429 277.75 170.882 295.292 153.335Z" fill="#2C3E59"/>
<path d="M0.691823 492.494C-0.983952 497.822 0.437918 503.638 4.37931 507.591C8.32461 511.544 14.141 512.982 19.4691 511.318C32.4925 507.251 147.617 470.713 178.625 439.709C186.929 431.4 193.691 422.017 198.679 411.971C201.535 412.139 204.093 411.545 206.382 410.377C217.773 404.564 229.902 398.529 242.718 392.115C248.675 469.752 248.203 457.138 248.222 465.763C248.249 476.959 260.066 484.111 269.964 479.127C273.702 476.642 312.507 462.463 339.858 418.119C355.042 393.506 362.968 365.201 362.968 336.272V325.963C385.55 311.354 406.565 295.752 423.792 279.12C498.319 207.171 515.147 118.605 511.549 14.9253C511.276 7.05029 504.952 0.726094 497.077 0.452658C393.425 -3.14498 304.839 13.6714 232.878 88.2101C216.574 105.101 201.25 124.925 186.886 147.007H174.41C116.035 147.007 61.7346 180.37 35.1565 233.553L31.555 240.717C29.2151 245.362 29.4495 250.881 32.1722 255.311C34.8948 259.741 39.7151 262.448 44.9143 262.459C53.426 262.483 40.2971 261.881 120.019 269.01C113.73 281.58 107.473 294.147 101.625 305.616C100.316 308.178 99.8086 310.987 100.043 313.717C90.0938 318.694 80.797 325.408 72.5626 333.643C41.5667 364.635 4.78556 479.498 0.691823 492.494V492.494ZM202.484 378.717L133.281 309.514C137.68 300.795 142.129 291.862 147.441 281.248L230.75 364.561C219.828 370.025 211.312 374.268 202.484 378.717ZM276.702 441.217L271.652 377.514C291.796 367.213 312.593 356.201 332.804 344.463C330.284 384.096 309.554 419.635 276.702 441.217V441.217ZM481.92 30.0775C482.424 62.843 480.526 91.8429 475.959 117.921C433.389 111.905 400.097 78.6086 394.081 36.0424C420.155 31.476 449.155 29.5775 481.92 30.0775ZM254.46 109.046C285.886 76.4953 320.948 54.9212 364.745 42.6517C368.968 68.7336 381.222 92.8039 400.21 111.788C419.198 130.776 443.264 143.034 469.346 147.253C457.077 191.05 435.503 226.116 402.952 257.538C366.632 292.604 310.792 323.772 258.937 350.322L161.679 253.061C188.226 201.206 219.394 145.37 254.46 109.046V109.046ZM69.3166 234.206C91.2696 200.628 127.777 179.675 168.359 177.772C156.34 198.385 145.074 219.643 134.551 240.221L69.3166 234.206ZM119.301 337.959L136.199 354.858L104.379 386.678C98.5196 392.533 98.5196 402.033 104.379 407.889C110.234 413.748 119.734 413.748 125.59 407.889L157.41 376.068L174.308 392.967C170.715 402.221 164.972 410.932 157.41 418.494C140.219 435.689 79.9454 459.068 38.7073 473.349C53.0744 432.197 76.5626 372.064 93.7735 354.858C101.336 347.295 110.047 341.553 119.301 337.959V337.959Z" fill="#2C3E59"/>
<path d="M252.605 259.389C246.75 253.534 237.25 253.534 231.394 259.389C225.535 265.249 225.535 274.745 231.394 280.604C237.25 286.459 246.75 286.459 252.605 280.604C258.464 274.745 258.464 265.249 252.605 259.389Z" fill="#2C3E59"/>
</g>
<defs>
<clipPath id="clip0_24_24">
<rect width="512" height="512" fill="white"/>
</clipPath>
</defs>
</svg>
