<svg width="512" height="512" viewBox="0 0 512 512" fill="none" xmlns="http://www.w3.org/2000/svg">
<path d="M376 512C400.812 512 421 491.812 421 467V45C421 20.1875 400.812 0 376 0H136C111.188 0 91 20.1875 91 45V467C91 491.812 111.188 512 136 512H376ZM121 45C121 36.7305 127.73 30 136 30H376C384.27 30 391 36.7305 391 45V60H121V45ZM121 90H391V422H121V90ZM121 467V452H391V467C391 475.27 384.27 482 376 482H136C127.73 482 121 475.27 121 467Z" fill="#2C3E59"/>
<path d="M256 121C198.102 121 151 168.102 151 226C151 283.801 198.016 331 256 331C314.008 331 361 283.785 361 226C361 168.102 313.898 121 256 121ZM256 301C242.387 301 229.617 297.336 218.602 290.969C226.828 278.711 240.773 271 256 271C271.223 271 285.172 278.711 293.398 290.969C282.383 297.336 269.613 301 256 301ZM241 226C241 217.73 247.73 211 256 211C264.27 211 271 217.73 271 226C271 234.27 264.27 241 256 241C247.73 241 241 234.27 241 226ZM315.977 270.977C309.848 262.832 302.137 256.059 293.383 251.02C298.191 243.859 301 235.254 301 226C301 201.188 280.812 181 256 181C231.188 181 211 201.188 211 226C211 235.254 213.809 243.859 218.617 251.02C209.859 256.059 202.152 262.836 196.023 270.977C186.594 258.438 181 242.859 181 226C181 184.645 214.645 151 256 151C297.355 151 331 184.645 331 226C331 242.859 325.406 258.438 315.977 270.977Z" fill="#2C3E59"/>
<path d="M271 376C271 384.285 264.285 391 256 391C247.715 391 241 384.285 241 376C241 367.715 247.715 361 256 361C264.285 361 271 367.715 271 376Z" fill="#2C3E59"/>
<path d="M331 376C331 384.285 324.285 391 316 391C307.715 391 301 384.285 301 376C301 367.715 307.715 361 316 361C324.285 361 331 367.715 331 376Z" fill="#2C3E59"/>
<path d="M211 376C211 384.285 204.285 391 196 391C187.715 391 181 384.285 181 376C181 367.715 187.715 361 196 361C204.285 361 211 367.715 211 376Z" fill="#2C3E59"/>
</svg>
