<svg width="512" height="512" viewBox="0 0 512 512" fill="none" xmlns="http://www.w3.org/2000/svg">
<path d="M467 16H45C20.1875 16 0 36.1875 0 61V361C0 385.812 20.1875 406 45 406H175.188L155.188 466H106C97.7148 466 91 472.715 91 481C91 489.285 97.7148 496 106 496H467C491.812 496 512 475.812 512 451C512 438.137 512 68.9883 512 61C512 36.1875 491.812 16 467 16ZM45 376C36.7305 376 30 369.27 30 361V346H302V376H45ZM186.812 466L206.812 406H302V451C302 456.258 302.914 461.305 304.578 466H186.812ZM482 451C482 459.27 475.27 466 467 466C456.812 466 363.152 466 347 466C338.73 466 332 459.27 332 451V436H482V451ZM482 406H332V256H482V406ZM482 226H332V211C332 202.73 338.73 196 347 196H467C475.27 196 482 202.73 482 211V226ZM482 168.578C477.305 166.914 472.258 166 467 166H347C322.188 166 302 186.188 302 211V316H30V61C30 52.7305 36.7305 46 45 46H467C475.27 46 482 52.7305 482 61V168.578Z" fill="#2C3E59"/>
</svg>
