<svg width="512" height="512" viewBox="0 0 512 512" fill="none" xmlns="http://www.w3.org/2000/svg">
<g clip-path="url(#clip0_23_2)">
<path d="M498.806 55.6056L456.384 13.18C438.842 -4.36289 410.291 -4.36289 392.748 13.18C377.631 28.2971 272.143 133.785 255.999 149.929L163.159 57.09C161.69 55.6173 159.94 54.4845 157.917 53.6877L20.3744 0.992553C14.851 -1.12463 8.58932 0.207399 4.40574 4.39488C0.218261 8.58237 -1.11377 14.8402 1.00341 20.3675L53.6985 157.91C53.7102 157.937 53.722 157.965 53.7337 157.992C54.429 159.773 55.5423 161.593 57.097 163.152L149.936 255.992C130.167 275.761 28.4096 377.518 13.1909 392.737C-4.395 410.323 -4.39891 438.788 13.1909 456.374L55.6126 498.799C73.1555 516.342 101.706 516.346 119.253 498.799L255.999 362.054L392.748 498.799C410.291 516.342 438.842 516.346 456.384 498.799L498.81 456.378C516.396 438.788 516.4 410.327 498.81 392.737L362.061 255.992L498.81 119.242C516.396 101.656 516.396 73.1954 498.806 55.6056V55.6056ZM41.0462 41.0393L125.605 73.4337L73.4406 125.594L41.0462 41.0393ZM98.0382 477.588C92.1906 483.436 82.675 483.436 76.8273 477.588L34.4017 435.163C28.5385 429.3 28.5385 419.815 34.4017 413.952L43.2454 405.108L75.0617 436.928C80.9172 442.784 90.4171 442.784 96.2726 436.928C102.132 431.069 102.132 421.573 96.2726 415.714L64.4563 383.897L85.6672 362.683L96.2765 373.292C102.132 379.147 111.628 379.147 117.487 373.292C123.347 367.433 123.347 357.937 117.487 352.077L106.882 341.472L128.093 320.261L159.913 352.081C165.768 357.937 175.264 357.937 181.124 352.081C186.983 346.222 186.983 336.726 181.124 330.866L149.304 299.05L171.147 277.202L234.788 340.843L98.0382 477.588ZM88.9171 152.543L110.128 131.332L392.412 413.612L371.201 434.827L88.9171 152.543ZM477.595 413.952C483.459 419.815 483.459 429.3 477.595 435.163L435.174 477.588C429.326 483.436 419.81 483.436 413.959 477.588L392.412 456.038C398.162 450.288 449.498 398.952 456.049 392.401L477.595 413.952ZM434.838 371.19L413.623 392.401L131.343 110.121L152.554 88.9063L434.838 371.19ZM477.595 98.0312L340.85 234.777L277.213 171.14L297.791 150.558L329.612 182.379C335.467 188.238 344.967 188.238 350.822 182.379C356.682 176.519 356.682 167.023 350.822 161.168L319.006 129.348L340.217 108.137L350.822 118.742C356.682 124.598 366.178 124.598 372.037 118.742C377.893 112.883 377.893 103.387 372.037 97.5273L361.432 86.9219L382.643 65.7111L414.459 97.5273C420.318 103.387 429.814 103.387 435.674 97.5273C441.529 91.6719 441.529 82.1758 435.674 76.3165L403.853 44.5002L413.959 34.3909C419.81 28.5432 429.326 28.5432 435.174 34.3909L477.599 76.8165C483.459 82.6797 483.459 92.168 477.595 98.0312V98.0312Z" fill="#2C3E59"/>
</g>
<defs>
<clipPath id="clip0_23_2">
<rect width="512" height="512" fill="white"/>
</clipPath>
</defs>
</svg>
