<svg width="512" height="512" viewBox="0 0 512 512" fill="none" xmlns="http://www.w3.org/2000/svg">
<path d="M467 0H45C20.1875 0 0 20.1875 0 45V345C0 369.812 20.1875 390 45 390H175.188L155.188 450H106C97.7148 450 91 456.715 91 465C91 473.285 97.7148 480 106 480H406C414.285 480 421 473.285 421 465C421 456.715 414.285 450 406 450H356.812L336.812 390H467C491.812 390 512 369.812 512 345V45C512 20.1875 491.812 0 467 0ZM186.812 450L206.812 390H305.188L325.188 450H186.812ZM482 345C482 353.27 475.27 360 467 360C423.418 360 89.0352 360 45 360C36.7305 360 30 353.27 30 345V330H482V345ZM163.578 213.789L149.934 200.148L171.145 178.934L184.789 192.578C189.625 197.414 197.121 198.367 203.016 194.891C211.445 189.922 220.445 186.176 229.762 183.762C236.379 182.051 241 176.078 241 169.242V150H271V169.242C271 176.078 275.621 182.051 282.238 183.762C291.551 186.176 300.551 189.922 308.98 194.895C314.875 198.367 322.371 197.414 327.207 192.578L340.852 178.934L362.066 200.148L348.422 213.793C343.586 218.629 342.633 226.125 346.109 232.016C351.082 240.449 354.824 249.449 357.238 258.762C358.949 265.379 364.922 270 371.758 270H391V300H329.484C330.484 295.086 331 290.059 331 285C331 243.645 297.355 210 256 210C214.645 210 181 243.645 181 285C181 290.059 181.516 295.086 182.516 300H121V270H140.242C147.078 270 153.051 265.379 154.766 258.762C157.176 249.449 160.922 240.449 165.891 232.016C169.363 226.125 168.414 218.629 163.578 213.789V213.789ZM301 285C301 290.137 300.109 295.211 298.422 300H213.578C211.891 295.211 211 290.137 211 285C211 260.188 231.188 240 256 240C280.812 240 301 260.188 301 285ZM482 300H421V255C421 246.715 414.285 240 406 240H382.828C381.273 235.641 379.488 231.355 377.48 227.156L393.887 210.754C399.742 204.895 399.742 195.398 393.883 189.539L351.457 147.113C348.645 144.301 344.828 142.723 340.852 142.723C336.875 142.723 333.059 144.301 330.246 147.113L313.844 163.52C309.645 161.512 305.359 159.727 301 158.176V135C301 126.715 294.285 120 286 120H226C217.715 120 211 126.715 211 135V158.176C206.641 159.727 202.355 161.512 198.156 163.52L181.754 147.113C178.941 144.301 175.125 142.723 171.148 142.723C167.168 142.723 163.355 144.301 160.539 147.113L118.117 189.539C112.258 195.398 112.258 204.895 118.117 210.754L134.52 227.16C132.512 231.355 130.73 235.641 129.176 240H106C97.7148 240 91 246.719 91 255V300H30V45C30 36.7305 36.7305 30 45 30H467C475.27 30 482 36.7305 482 45V300Z" fill="#2C3E59"/>
<path d="M406 60C381.188 60 361 80.1875 361 105C361 129.812 381.188 150 406 150C430.812 150 451 129.812 451 105C451 80.1875 430.812 60 406 60ZM406 120C397.73 120 391 113.27 391 105C391 96.7305 397.73 90 406 90C414.27 90 421 96.7305 421 105C421 113.27 414.27 120 406 120Z" fill="#2C3E59"/>
</svg>
