<svg width="512" height="512" viewBox="0 0 512 512" fill="none" xmlns="http://www.w3.org/2000/svg">
<path d="M497 346H482V91C482 66.1875 461.812 46 437 46H75C50.1875 46 30.1016 66.1875 30.1016 91V346H15.1016C6.81641 346 0 352.715 0 361V391C0 432.355 33.6445 466 75 466H437C478.355 466 512 432.355 512 391V361C512 352.715 505.285 346 497 346ZM60 91C60 82.7305 66.7305 76 75 76H437C445.27 76 452.102 82.7305 452.102 91V346H347C338.719 346 332.102 352.715 332.102 361V361.02V376H180V361C180 352.715 173.285 346 165 346H60V91ZM482.102 391C482.102 415.812 461.812 436 437 436H75C50.1875 436 30 415.812 30 391V376H150.102V391C150.102 399.285 156.715 406 165 406H347C355.285 406 362 399.285 362 391V376H482.102V391Z" fill="#2C3E59"/>
<path d="M422.004 301C422.004 292.715 415.285 286 407.004 286H141.43L225.957 202.168L275.395 251.605C281.223 257.434 290.66 257.469 296.531 251.684L357.527 191.562C363.422 194.406 370.031 196 377.004 196C401.816 196 422.004 175.812 422.004 151C422.004 126.188 401.816 106 377.004 106C352.191 106 332.004 126.188 332.004 151C332.004 157.906 333.57 164.449 336.359 170.301L286.078 219.863L236.609 170.395C230.766 164.551 221.305 164.531 215.441 170.348L120.004 264.996V121C120.004 112.715 113.285 106 105.004 106C96.7188 106 90.0039 112.715 90.0039 121V301C90.0039 309.355 96.8438 316 105 316H105.008H407.004C415.285 316 422.004 309.285 422.004 301V301ZM377.004 136C385.273 136 392.004 142.73 392.004 151C392.004 159.27 385.273 166 377.004 166C368.73 166 362.004 159.27 362.004 151C362.004 142.73 368.73 136 377.004 136Z" fill="#2C3E59"/>
</svg>
