<svg width="512" height="512" viewBox="0 0 512 512" fill="none" xmlns="http://www.w3.org/2000/svg">
<path d="M256 0C114.841 0 0 114.841 0 256C0 397.159 114.841 512 256 512C397.159 512 512 397.159 512 256C512 114.841 397.159 0 256 0ZM256 30C298.07 30 337.483 41.568 371.25 61.67L176.339 203.283L132.086 67.097C167.693 43.661 210.278 30 256 30V30ZM256.029 182.466L325.925 233.249L299.21 315.469H212.793L186.087 233.282L256.029 182.466ZM30 256C30 188.507 59.749 127.84 106.812 86.393L181.25 315.469H37.956C32.78 296.512 30 276.576 30 256V256ZM245.188 481.736C156.978 477.56 81.855 422.577 48.482 345.469H289.463L245.188 481.736ZM276.964 481.019L351.444 251.79L467.358 336.007C437.355 415.002 364.283 472.949 276.964 481.019ZM281.548 163.926L397.344 79.794C448.922 121.25 482 184.83 482 256C482 273.026 480.095 289.614 476.509 305.574L281.548 163.926Z" fill="#2C3E59"/>
</svg>
