<svg width="512" height="512" viewBox="0 0 512 512" fill="none" xmlns="http://www.w3.org/2000/svg">
<g clip-path="url(#clip0_24_14)">
<path d="M454.965 57.0352C378.918 -19.0117 255.18 -19.0117 179.133 57.0352C114.035 122.133 104.672 222.168 151.02 297.328L13.1602 435.184C-4.38672 452.734 -4.38672 481.289 13.1602 498.84C30.707 516.387 59.2656 516.387 76.8125 498.84L140.465 435.188C140.465 435.188 140.465 435.184 140.469 435.184L214.672 360.98C290.039 407.457 390.023 397.805 454.961 332.867C531.012 256.82 531.012 133.082 454.965 57.0352V57.0352ZM55.5977 477.621C49.75 483.473 40.2305 483.473 34.3789 477.621C28.5313 471.77 28.5313 462.254 34.3789 456.402L44.9883 445.793L66.207 467.012L55.5977 477.621ZM87.4219 445.793L66.207 424.574L87.4219 403.359L108.641 424.574L87.4219 445.793ZM129.859 403.359L108.641 382.141L168.926 321.855C172.164 325.625 175.563 329.301 179.133 332.867C182.703 336.437 186.375 339.84 190.145 343.074L129.859 403.359ZM433.746 311.652C369.398 375.996 264.699 375.996 200.348 311.652C136.004 247.305 136.004 142.602 200.348 78.2539C264.695 13.9062 369.395 13.9023 433.746 78.2539C498.094 142.602 498.094 247.305 433.746 311.652Z" fill="#2C3E59"/>
<path d="M412.528 99.4728C359.833 46.7736 274.27 46.7697 221.567 99.4728C168.872 152.168 168.868 237.731 221.567 290.434C274.266 343.129 359.829 343.133 412.528 290.434C465.227 237.734 465.227 152.172 412.528 99.4728V99.4728ZM391.309 269.215C350.36 310.164 283.735 310.164 242.786 269.215C201.836 228.266 201.836 161.637 242.786 120.692C283.735 79.7423 350.36 79.7384 391.309 120.692C432.258 161.637 432.258 228.266 391.309 269.215Z" fill="#2C3E59"/>
<path d="M380.883 154.41C373.473 150.707 364.461 153.711 360.754 161.121L344.168 194.297L327.582 161.121C325.039 156.039 319.844 152.828 314.16 152.828C308.477 152.828 303.285 156.039 300.742 161.121L284.157 194.297L267.567 161.121C263.864 153.711 254.848 150.707 247.438 154.41C240.028 158.117 237.024 167.129 240.731 174.543L270.735 234.555C273.278 239.637 278.473 242.848 284.157 242.848C289.84 242.848 295.032 239.637 297.574 234.555L314.164 201.379L330.75 234.555C333.289 239.637 338.485 242.848 344.168 242.848C349.852 242.848 355.047 239.637 357.59 234.555L387.594 174.543C391.301 167.129 388.297 158.117 380.883 154.41Z" fill="#2C3E59"/>
</g>
<defs>
<clipPath id="clip0_24_14">
<rect width="512" height="512" fill="white"/>
</clipPath>
</defs>
</svg>
